# xmcd CD database file
#
# Track frame offsets:
#	150
#	10942
#	24492
#	36095
#	48675
#	59910
#	70460
#	83052
#	93085
#	107025
#
# Disc length: 1576 seconds
#
# Revision: 3
# Processed by: cddbd v1.5.2PL0 Copyright (c) Steve Scherf et al.
# Submitted via: CDex 1.51
#
DISCID=8306260a
DTITLE=Arthur Conley - Sweet Soul Music
DYEAR=1900
DGENRE=Soul
TTITLE0=Sweet Soul Music
TTITLE1=Take Me (Just As I Am)
TTITLE2=Who's Foolin' Who
TTITLE3=There's A Place For Us
TTITLE4=I Can't Stop (No, No, No)
TTITLE5=Wholesale Love
TTITLE6=I'm A Lonely Stranger
TTITLE7=I'm Gonna Forget About You
TTITLE8=Let Nothing Separate Us
TTITLE9=Where You Lead Me
EXTD=
EXTT0=
EXTT1=
EXTT2=
EXTT3=
EXTT4=
EXTT5=
EXTT6=
EXTT7=
EXTT8=
EXTT9=
PLAYORDER=
